# xmcd
# 
# Track frame offsets:
#     150
#     29132
#     55232
#     74800
#     92500
#     115982
#     143950
#     164650
#     186305
#     209907
# 
# Disc length: 3255
# 
# Revision: 1
# Processed by: cddbd v1.5.2PL0 Copyright (c) Steve Scherf et al.
# Submitted via: fre:ac v1.0.31
# 
DISCID=a80cb50a
DTITLE=Khánh Hà - LVCD19-Mùa Thu Cho Em
DYEAR=1989
DGENRE=Pop
TTITLE0=Anh Đã Quên Mùa Thu
TTITLE1=Bài Không Tên Số 2
TTITLE2=Nỗi Niềm
TTITLE3=Mùa Thu Cho Em
TTITLE4=Mắt Biếc
TTITLE5=Nha Trang Ngày Về
TTITLE6=Thuyền Viễn Xứ
TTITLE7=Gửi Gió Cho Mây Ngàn Bay
TTITLE8=Chiều Tím
TTITLE9=Gợi Giấc Mơ Xưa
EXTD=
EXTT0=
EXTT1=
EXTT2=
EXTT3=
EXTT4=
EXTT5=
EXTT6=
EXTT7=
EXTT8=
EXTT9=
PLAYORDER=
